<svg xmlns="http://www.w3.org/2000/svg" width="35.108" height="27.307" viewBox="0 0 35.108 27.307">
  <path id="Icon_awesome-pills" data-name="Icon awesome-pills" d="M6.827,2.25A6.823,6.823,0,0,0,0,9.077V22.73a6.827,6.827,0,1,0,13.654,0V9.077A6.823,6.823,0,0,0,6.827,2.25ZM11.858,15.9H1.629V9.077a5.7,5.7,0,0,1,5.2-4.912c3.218-.11,5.031,3.3,5.031,4.912Zm6.41-1.81a.5.5,0,0,0-.75.049,9.7,9.7,0,0,0,13.55,13.55.5.5,0,0,0,.049-.75L24.571,20.4Zm14.007-1.158a9.718,9.718,0,0,0-12.581-.969.5.5,0,0,0-.049.75L32.494,25.565a.5.5,0,0,0,.75-.049,9.71,9.71,0,0,0-.969-12.581Z" transform="translate(0 -2.25)" fill="#d84f99"/>
</svg>
