<svg xmlns="http://www.w3.org/2000/svg" width="33.196" height="36.885" viewBox="0 0 33.196 36.885">
  <path id="calendar_month_FILL0_wght400_GRAD0_opsz48" d="M8.766,40.885a2.654,2.654,0,0,1-1.936-.83A2.654,2.654,0,0,1,6,38.118V9.533A2.654,2.654,0,0,1,6.83,7.6a2.654,2.654,0,0,1,1.936-.83h3V4h3V6.766H30.436V4h3V6.766h3a2.654,2.654,0,0,1,1.936.83,2.654,2.654,0,0,1,.83,1.936V38.118a2.836,2.836,0,0,1-2.766,2.766Zm0-2.766H36.43V18.293H8.766Zm0-22.592H36.43V9.533H8.766Zm0,0v0ZM22.6,26.131a1.811,1.811,0,1,1,1.314-.53A1.784,1.784,0,0,1,22.6,26.131Zm-7.377,0a1.811,1.811,0,1,1,1.314-.53A1.784,1.784,0,0,1,15.221,26.131Zm14.754,0a1.811,1.811,0,1,1,1.314-.53A1.784,1.784,0,0,1,29.975,26.131ZM22.6,33.508a1.811,1.811,0,1,1,1.314-.53A1.784,1.784,0,0,1,22.6,33.508Zm-7.377,0a1.811,1.811,0,1,1,1.314-.53A1.784,1.784,0,0,1,15.221,33.508Zm14.754,0a1.811,1.811,0,1,1,1.314-.53A1.784,1.784,0,0,1,29.975,33.508Z" transform="translate(-6 -4)" fill="#32325d"/>
</svg>
