<svg id="Component_1_1" data-name="Component 1 – 1" xmlns="http://www.w3.org/2000/svg" width="61.211" height="39.25" viewBox="0 0 61.211 39.25">
  <path id="alarm_FILL0_wght400_GRAD0_opsz48" d="M23.95,43.9a17.557,17.557,0,0,1-6.975-1.4,17.949,17.949,0,0,1-5.7-3.825,18.3,18.3,0,0,1-3.85-5.7,17.905,17.905,0,0,1,0-14,18.606,18.606,0,0,1,3.85-5.725,17.744,17.744,0,0,1,5.7-3.85,18.075,18.075,0,0,1,13.95,0c2.183.933-2.48.195-.847,1.828S29.067,8.951,30,11.134,40.841,23.033,40.841,25.5a23.689,23.689,0,0,1-.341,4.757c-.35,1.756.433,1.7,0,2.718a17.744,17.744,0,0,1-3.85,5.7A18.248,18.248,0,0,1,30.925,42.5a17.557,17.557,0,0,1-6.975,1.4ZM23.95,26.05ZM30,34.1,32.1,32l-6.5-6.5V16h-3V26.7ZM10.7,4.65l2.1,2.1-8.2,7.9-2.1-2.1ZM23.95,40.9a14.425,14.425,0,0,0,10.6-4.35c2.9-2.9,6.241-10.451,5.5-11.856s-2.6-6.444-5.5-9.344A14.425,14.425,0,0,0,23.95,11a14.425,14.425,0,0,0-10.6,4.35A14.425,14.425,0,0,0,9,25.95a14.425,14.425,0,0,0,4.35,10.6A14.425,14.425,0,0,0,23.95,40.9Z" transform="translate(-2.5 -4.65)" fill="#32325d"/>
  <path id="pill_FILL0_wght400_GRAD0_opsz48" d="M17.25,42a10.854,10.854,0,0,1-7.975-3.275A10.854,10.854,0,0,1,6,30.75,11.158,11.158,0,0,1,9.3,22.8L22.8,9.3A11.158,11.158,0,0,1,30.75,6a10.854,10.854,0,0,1,7.975,3.275A10.854,10.854,0,0,1,42,17.25a11.158,11.158,0,0,1-3.3,7.95L25.2,38.7A11.158,11.158,0,0,1,17.25,42ZM30.9,28.75l5.7-5.65a8.072,8.072,0,0,0,1.775-2.675A8.294,8.294,0,0,0,39,17.25,8.195,8.195,0,0,0,30.75,9a8.294,8.294,0,0,0-3.175.625A8.072,8.072,0,0,0,24.9,11.4l-5.65,5.7ZM17.25,39a8.357,8.357,0,0,0,3.15-.625A8.01,8.01,0,0,0,23.1,36.6l5.65-5.7L17.1,19.25,11.4,24.9a8.072,8.072,0,0,0-1.775,2.675A8.294,8.294,0,0,0,9,30.75,8.195,8.195,0,0,0,17.25,39Z" transform="matrix(0.017, -1, 1, 0.017, 18.485, 41.889)" fill="#d84f99"/>
  <rect id="Rectangle_12" data-name="Rectangle 12" width="15.72" height="4" rx="2" transform="matrix(-0.574, -0.819, 0.819, -0.574, 36.781, 21.194)" fill="#fff"/>
  <rect id="Rectangle_13" data-name="Rectangle 13" width="6" height="3" transform="matrix(0.719, -0.695, 0.695, 0.719, 34.12, 20.505)" fill="#fff"/>
</svg>
