<svg xmlns="http://www.w3.org/2000/svg" width="33.671" height="36.95" viewBox="0 0 33.671 36.95">
  <path id="prescriptions_FILL0_wght400_GRAD0_opsz48" d="M30.129,35.629l2.228-2.27L28.447,29.45l-2.27,2.228a2.631,2.631,0,0,0-.82,1.976,2.8,2.8,0,0,0,2.8,2.8A2.631,2.631,0,0,0,30.129,35.629Zm3.951-3.993,2.27-2.228a2.631,2.631,0,0,0,.82-1.976,2.781,2.781,0,0,0-.862-1.976,2.693,2.693,0,0,0-3.909,0l-2.228,2.27Zm-2.186,5.759a5.291,5.291,0,1,1-7.482-7.482l6.221-6.221a5.291,5.291,0,1,1,7.482,7.482ZM8.522,33.107v0Zm0,2.522A2.512,2.512,0,0,1,6,33.107V7.885A2.512,2.512,0,0,1,8.522,5.363H17.14a3.73,3.73,0,0,1,1.345-2.417,4.181,4.181,0,0,1,5.3,0,3.73,3.73,0,0,1,1.345,2.417h8.617a2.512,2.512,0,0,1,2.522,2.522V19.823a6.585,6.585,0,0,0-1.261-.21,6.332,6.332,0,0,0-1.261.042V7.885H8.522V33.107H20.334a7.583,7.583,0,0,0,.021,1.261,7.964,7.964,0,0,0,.231,1.261ZM21.133,7.17A1.509,1.509,0,0,0,22.6,5.7a1.471,1.471,0,1,0-2.5,1.03A1.412,1.412,0,0,0,21.133,7.17Zm-8.407,7.44V12.089H29.54v2.522Zm0,7.146V19.235H29.54v2.06a2.889,2.889,0,0,0-.273.21q-.147.126-.273.252Zm0,7.146V26.381H24.37L22.6,28.147q-.21.21-.357.378t-.315.378Z" transform="translate(-6 -2)" fill="#d84f99"/>
</svg>
